<svg width="30" height="34" viewBox="0 0 30 34" fill="none" xmlns="http://www.w3.org/2000/svg">
<path d="M10 0L11.1815 14.1357L16.4831 16L21.8185 14.1357L23 0H10ZM20.4339 4.56786H14.2115L14.3503 6.33214H20.2951L19.8346 11.6321L16.5203 12.5964V12.6071H16.4831L13.1417 11.6321L12.9385 8.925H14.5534L14.6719 10.2857L16.4831 10.8036L18.301 10.2857L18.5042 8.06429H12.8539L12.4206 2.86429H20.5828L20.4339 4.56786Z" fill="black"/>
<path d="M17 19V32H30V19H17ZM24.0746 29.1388C24.0746 30.404 23.3317 30.9815 22.2493 30.9815C21.2714 30.9815 20.7056 30.4766 20.4154 29.8643L21.4107 29.2636C21.6022 29.6031 21.7763 29.8904 22.1971 29.8904C22.5975 29.8904 22.8529 29.7337 22.8529 29.1214V24.969H24.0746V29.1388ZM26.9647 30.9815C25.8301 30.9815 25.096 30.4417 24.7391 29.7337L25.7344 29.1592C25.9955 29.5857 26.3379 29.902 26.9386 29.902C27.4435 29.902 27.7685 29.6496 27.7685 29.2984C27.7685 28.8806 27.4377 28.7326 26.8777 28.4859L26.573 28.3554C25.6908 27.981 25.1076 27.508 25.1076 26.5127C25.1076 25.5958 25.8069 24.8993 26.8951 24.8993C27.6728 24.8993 28.2299 25.1692 28.6304 25.8772L27.6786 26.4866C27.4696 26.1123 27.2433 25.9643 26.8922 25.9643C26.5353 25.9643 26.3089 26.1906 26.3089 26.4866C26.3089 26.8522 26.5353 27.0002 27.0605 27.2295L27.3652 27.36C28.404 27.804 28.9873 28.2596 28.9873 29.281C28.9873 30.3779 28.1225 30.9815 26.9647 30.9815Z" fill="black"/>
<path d="M0 18L1.2724 32.1357L7 34L12.7276 32.1357L14 18H0ZM11.4151 20.8571L11.2401 22.5464L7.03646 24.3071L7.02552 24.3107H11.0906L10.624 29.5464L7.04375 30.5714L3.44167 29.5286L3.20833 26.8893H4.99115L5.10781 28.2571L7.02552 28.7321L9.01979 28.1821L9.15469 25.9821L3.09167 25.9643V25.9607L3.08437 25.9643L2.95312 24.3107L7.0401 22.6429L7.27708 22.5464H2.79635L2.5849 20.8571H11.4151Z" fill="black"/>
</svg>
