<svg width="33" height="33" viewBox="0 0 33 33" fill="none" xmlns="http://www.w3.org/2000/svg">
<path d="M23.9637 1.74668C24.9305 0.638086 26.3291 0 27.7986 0C30.6088 0 32.8904 2.28164 32.8904 5.0918C32.8904 6.56133 32.2523 7.96641 31.1437 8.9332L17.7891 20.5605L17.1252 19.8967L13.0002 15.7717L12.3299 15.1014L23.9637 1.74668ZM10.8668 16.558L11.5371 17.2283L15.6621 21.3533L16.3324 22.0236L15.0949 27.399C14.8436 28.5012 14.0057 29.3777 12.9164 29.6807L1.46309 32.8904L7.61191 26.7416C7.77949 26.7867 7.95996 26.8125 8.14688 26.8125C9.2877 26.8125 10.2094 25.8908 10.2094 24.75C10.2094 23.6092 9.2877 22.6875 8.14688 22.6875C7.00606 22.6875 6.08438 23.6092 6.08438 24.75C6.08438 24.9369 6.11016 25.1109 6.15527 25.285L0 31.4273L3.20977 19.9805C3.5127 18.8912 4.38926 18.0533 5.49141 17.802L10.8668 16.5645V16.558Z" fill="black"/>
</svg>
