<svg width="37" height="32" viewBox="0 0 37 32" fill="none" xmlns="http://www.w3.org/2000/svg">
<path d="M30.2215 10.37C29.8313 10.2414 29.441 10.12 29.0508 10.0057C29.1158 9.74144 29.1736 9.47717 29.2314 9.2129C30.1203 4.95598 29.535 1.53474 27.5621 0.406228C25.6615 -0.672286 22.5613 0.449083 19.425 3.14894C19.1143 3.41321 18.8107 3.69177 18.5217 3.97032C18.3266 3.78462 18.1242 3.59891 17.9219 3.42035C14.6338 0.534792 11.3385 -0.679428 9.36563 0.456225C7.47227 1.54188 6.90859 4.76314 7.70352 8.7915C7.78301 9.19147 7.86973 9.58431 7.9709 9.98429C7.5084 10.1129 7.05312 10.2557 6.62676 10.4057C2.76777 11.7271 0 13.8127 0 15.9697C0 18.1981 2.94844 20.4337 6.95918 21.7908C7.28438 21.8979 7.60957 22.0051 7.94199 22.0979C7.83359 22.5265 7.73965 22.9479 7.65293 23.3836C6.89414 27.3476 7.48672 30.4903 9.38008 31.5688C11.3313 32.6831 14.6121 31.5403 17.8062 28.7761C18.0592 28.5547 18.3121 28.3262 18.565 28.0833C18.883 28.3904 19.2154 28.6833 19.5479 28.969C22.6408 31.5974 25.6977 32.6616 27.5838 31.5831C29.535 30.4689 30.1709 27.0905 29.3471 22.9765C29.282 22.6622 29.2098 22.3408 29.1303 22.0122C29.3615 21.9479 29.5855 21.8765 29.8096 21.8051C33.9793 20.4409 37 18.2338 37 15.9697C37 13.8055 34.1527 11.7056 30.2215 10.37ZM20.4439 4.30602C23.1322 1.99186 25.6398 1.08476 26.7816 1.73473C28.0029 2.42755 28.4727 5.2274 27.7066 8.90577C27.6561 9.14862 27.6055 9.38432 27.5404 9.62002C25.9361 9.2629 24.3102 9.00577 22.677 8.86292C21.7375 7.53442 20.7113 6.26306 19.5984 5.07026C19.8803 4.80599 20.1549 4.55601 20.4439 4.30602ZM12.0828 19.6766C12.4514 20.298 12.8271 20.9194 13.2246 21.5265C12.0973 21.4051 10.9771 21.2265 9.87148 20.9908C10.1895 19.9623 10.5869 18.8981 11.0494 17.8124C11.3818 18.441 11.7215 19.0624 12.0828 19.6766ZM9.89316 11.0842C10.9338 10.8557 12.0395 10.67 13.1885 10.5271C12.8055 11.1199 12.4297 11.7271 12.0756 12.3413C11.7215 12.9484 11.3746 13.5698 11.0494 14.1983C10.5941 13.1341 10.2111 12.0913 9.89316 11.0842ZM11.8732 16.0054C12.3502 15.0197 12.8705 14.0555 13.4197 13.1055C13.9689 12.1556 14.5615 11.2342 15.183 10.3271C16.267 10.2486 17.3727 10.2057 18.5 10.2057C19.6273 10.2057 20.7402 10.2486 21.817 10.3271C22.4312 11.2271 23.0166 12.1485 23.573 13.0913C24.1295 14.0341 24.6498 14.9983 25.1412 15.9768C24.657 16.9625 24.1367 17.9339 23.5803 18.891C23.0311 19.8409 22.4457 20.7623 21.8314 21.6765C20.7547 21.7551 19.6346 21.7908 18.5 21.7908C17.3654 21.7908 16.267 21.7551 15.2047 21.6908C14.576 20.7837 13.9834 19.8552 13.427 18.9052C12.8705 17.9553 12.3574 16.9911 11.8732 16.0054ZM24.9244 19.6623C25.293 19.0338 25.6398 18.3981 25.9795 17.7553C26.442 18.791 26.8467 19.8409 27.2008 20.9194C26.0807 21.1694 24.9461 21.3623 23.8043 21.4908C24.1945 20.8908 24.5631 20.2766 24.9244 19.6623ZM25.965 14.1983C25.6254 13.5698 25.2785 12.9413 24.9172 12.327C24.5631 11.7199 24.1945 11.1199 23.8115 10.5271C24.975 10.67 26.0879 10.8628 27.1285 11.0985C26.7961 12.1556 26.4059 13.1841 25.965 14.1983ZM18.5145 6.16306C19.2732 6.97731 19.9887 7.8344 20.6535 8.72007C19.2227 8.65579 17.7846 8.65579 16.3537 8.72007C17.0619 7.79869 17.7918 6.94159 18.5145 6.16306ZM10.1316 1.78473C11.3457 1.08476 14.0412 2.08471 16.8813 4.57029C17.0619 4.72743 17.2426 4.89885 17.4305 5.07026C16.3104 6.26306 15.277 7.53442 14.3303 8.86292C12.6971 9.00577 11.0783 9.25575 9.47402 9.60574C9.38008 9.24147 9.30059 8.87006 9.22109 8.49865C8.5418 5.04169 8.98984 2.43469 10.1316 1.78473ZM8.36113 20.6123C8.05762 20.5266 7.76133 20.4337 7.46504 20.3337C5.92578 19.8552 4.17695 19.0981 2.9123 18.1053C2.18242 17.6053 1.69102 16.8339 1.55371 15.9697C1.55371 14.6626 3.8373 12.9913 7.13262 11.8556C7.54453 11.7128 7.96367 11.5842 8.38281 11.4628C8.87422 13.0127 9.4668 14.534 10.1533 16.0054C9.45957 17.4982 8.85977 19.0409 8.36113 20.6123ZM16.7873 27.6119C15.5949 28.6904 14.2146 29.5475 12.7115 30.1332C11.9094 30.5118 10.9844 30.5475 10.1605 30.2261C9.01152 29.569 8.53457 27.0477 9.18496 23.655C9.26445 23.255 9.35117 22.855 9.45234 22.4622C11.0711 22.805 12.7043 23.0407 14.3592 23.1622C15.3131 24.4978 16.3609 25.7763 17.4811 26.9762C17.2498 27.1977 17.0186 27.4119 16.7873 27.6119ZM18.5578 25.8763C17.8207 25.0906 17.0836 24.2192 16.3682 23.2836C17.0619 23.3121 17.7773 23.3264 18.5 23.3264C19.2443 23.3264 19.9742 23.3121 20.6969 23.2764C20.032 24.1835 19.3166 25.0478 18.5578 25.8763ZM28.0029 28.019C27.9379 28.8904 27.5043 29.7047 26.8105 30.2546C25.6615 30.9117 23.2117 30.0546 20.5668 27.8119C20.2633 27.5548 19.9598 27.2762 19.649 26.9905C20.7547 25.7834 21.7736 24.5049 22.6986 23.1622C24.3535 23.0264 26.0012 22.7765 27.6271 22.4122C27.6994 22.705 27.7645 22.9979 27.8223 23.2836C28.1764 24.8264 28.2342 26.4334 28.0029 28.019ZM29.3182 20.3409C29.1158 20.4052 28.9135 20.4694 28.7039 20.5266C28.198 18.9695 27.5766 17.4482 26.8611 15.9697C27.5549 14.5126 28.1402 13.0127 28.6316 11.4771C29.0074 11.5842 29.3688 11.6985 29.7156 11.8128C33.0832 12.9556 35.4463 14.6555 35.4463 15.9554C35.4463 17.3553 32.9242 19.1624 29.3182 20.3409ZM18.5 19.2695C20.3283 19.2695 21.8098 17.8053 21.8098 15.9983C21.8098 14.1912 20.3283 12.727 18.5 12.727C16.6717 12.727 15.1902 14.1912 15.1902 15.9983C15.1902 17.8053 16.6717 19.2695 18.5 19.2695Z" fill="black"/>
</svg>
